<svg xmlns="http://www.w3.org/2000/svg" viewBox="0 0 42 42"><style>.st0{fill:#6C6865}.st1{fill:#fff}</style><path class="st0" d="M17.9 28.4c-1.1 5.7-2.3 11.2-6.1 14.1-1.2-8.6 1.7-15.1 3.1-22-2.3-4 .3-12.1 5.1-10.1 6 2.4-5.2 14.9 2.3 16.4 7.8 1.6 11-14 6.1-19.1C21.4.4 8 7.6 9.7 18.1c.4 2.6 3 3.3 1 6.9-4.5-1-5.8-4.7-5.6-9.5.2-8 6.9-13.6 13.5-14.4C27 .2 34.9 4.3 36 12.5c1.2 9.3-3.8 19.3-12.8 18.6-2.4-.2-3.4-1.4-5.3-2.7z"/><path class="st1" d="M17.9 105.9c-1.1 5.7-2.3 11.2-6.1 14.1-1.2-8.6 1.7-15.1 3.1-22-2.3-4 .3-12.1 5.1-10.1 6 2.4-5.2 14.9 2.3 16.4 7.8 1.6 11-14 6.1-19.1-7-7.3-20.3-.2-18.7 10.3.4 2.6 3 3.3 1 6.9-4.5-1-5.8-4.7-5.6-9.5.3-8 6.9-13.5 13.5-14.3C27 77.7 34.9 81.8 36 90c1.2 9.3-3.8 19.3-12.8 18.6-2.4-.2-3.4-1.4-5.3-2.7z"/></svg>