<svg xmlns="http://www.w3.org/2000/svg" viewBox="0 0 42 42"><style>.st0{fill:#6C6865}.st1{fill:#fff}</style><path class="st0" d="M40.9 7.8c-1.4.6-2.9 1.1-4.5 1.2 1.6-1 2.9-2.5 3.5-4.3-1.5.9-3.2 1.6-5 1.9-1.4-1.5-3.5-2.5-5.7-2.5-4.3 0-7.8 3.5-7.8 7.8 0 .6.1 1.2.2 1.8-6.5-.3-12.3-3.5-16.2-8.2-.8 1.2-1.2 2.6-1.2 4 0 2.7 1.8 5.1 3.9 6.5-1.3 0-3.1-.4-3.1-1v.1c0 3.8 2.3 7 5.9 7.7-.7.2-1.6.3-2.3.3-.5 0-1.1 0-1.6-.2 1 3.1 3.8 5.4 7.3 5.5-2.7 2.1-6.1 3.4-9.8 3.4-.6 0-1.3 0-1.9-.1 3.5 2.2 7.6 3.5 12 3.5 14.4 0 22.3-12 22.3-22.3v-1c1.6-1.1 2.9-2.5 4-4.1z"/><path class="st1" d="M40.9 87.5c-1.4.6-2.9 1-4.5 1.2 1.6-1 2.9-2.5 3.5-4.3-1.5.9-3.2 1.6-5 1.9-1.4-1.5-3.5-2.5-5.7-2.5-4.3 0-7.8 3.5-7.8 7.8 0 .6.1 1.2.2 1.8-6.7-.3-12.4-3.4-16.3-8.2-.7 1.2-1.1 2.5-1.1 3.9 0 2.7 1.8 5.1 3.9 6.5-1.3 0-3.1-.4-3.1-1v.1c0 3.8 2.3 7 5.9 7.7-.7.2-1.6.3-2.3.3-.5 0-1.1 0-1.6-.2 1 3.1 3.8 5.4 7.3 5.5-2.7 2.1-6.1 3.4-9.8 3.4-.6 0-1.3 0-1.9-.1 3.5 2.2 7.6 3.5 12 3.5 14.4 0 22.3-12 22.3-22.3v-1c1.6-1.1 2.9-2.5 4-4z"/></svg>