<svg xmlns="http://www.w3.org/2000/svg" viewBox="0 0 42 42"><style>.st0{fill:#fff}.st1{fill:#6C6865}</style><path class="st0" d="M21.4 80.5h-.7c-.8 0-2.4.1-4.2.9-1 .4-1.9 1-2.7 1.8-.9.9-1.7 2-2.2 3.2-.8 1.8-.6 4.9-.5 7.4v.8c-.1.1-.3.1-.6.1-.5 0-1-.2-1.6-.4-.2-.1-.4-.1-.6-.1-.4 0-.8.1-1.1.3-.4.3-.7.6-.8 1 0 .3 0 .8.5 1.3.3.3.8.6 1.4.8l.5.2c.7.2 1.7.5 2 1.2.1.3.1.7-.2 1.2-.1.2-.6 1.5-1.8 2.9-.7.8-1.4 1.5-2.2 2-1 .6-2 1-3.1 1.2-.4.1-.8.5-.7.9 0 .1 0 .3.1.4.2.4.6.8 1.2 1.1.8.4 2 .7 3.6.9.1.1.2.5.2.8l.2.9c.1.3.3.7 1 .7.2 0 .5-.1.8-.1.5-.1 1.1-.2 1.9-.2.4 0 .9 0 1.4.1.9.1 1.7.7 2.6 1.3 1.3.9 2.8 2 5.1 2h.4c2.3 0 3.8-1 5.1-2 .9-.6 1.7-1.2 2.6-1.3.5-.1.9-.1 1.4-.1.8 0 1.4.1 1.9.2.4.1.6.1.8.1.5 0 .8-.3.9-.7.1-.3.2-.6.2-.9l.2-.8c1.6-.2 2.8-.6 3.6-.9.7-.3 1.1-.7 1.2-1.1.1-.1.1-.3.1-.4 0-.4-.3-.8-.7-.9-4.9-.8-7.1-5.8-7.2-6.1-.3-.5-.3-.9-.2-1.2.3-.6 1.3-1 2-1.2l.5-.2c.7-.3 1.2-.6 1.5-.9.4-.4.5-.8.5-1 0-.6-.5-1.1-1.2-1.4-.2-.1-.5-.2-.8-.2-.2 0-.5 0-.8.2-.6.3-1.1.4-1.5.4-.2 0-.4-.1-.5-.1v-.8c.2-2.5.4-5.6-.5-7.4-.6-1.3-1.3-2.3-2.2-3.2-.8-.7-1.7-1.3-2.7-1.8-1.7-.7-3.3-.9-4.1-.9m0 0h-.7c-.8 0-2.4.1-4.2.9-1 .4-1.9 1-2.7 1.8-.9.9-1.7 2-2.2 3.2-.8 1.8-.6 4.9-.5 7.4v.8c-.1.1-.3.1-.6.1-.5 0-1-.2-1.6-.4-.2-.1-.4-.1-.6-.1-.4 0-.8.1-1.1.3-.4.3-.7.6-.8 1 0 .3 0 .8.5 1.3.3.3.8.6 1.4.8l.5.2c.7.2 1.7.5 2 1.2.1.3.1.7-.2 1.2-.1.2-.6 1.5-1.8 2.9-.7.8-1.4 1.5-2.2 2-1 .6-2 1-3.1 1.2-.4.1-.8.5-.7.9 0 .1 0 .3.1.4.2.4.6.8 1.2 1.1.8.4 2 .7 3.6.9.1.1.2.5.2.8l.2.9c.1.3.3.7 1 .7.2 0 .5-.1.8-.1.5-.1 1.1-.2 1.9-.2.4 0 .9 0 1.4.1.9.1 1.7.7 2.6 1.3 1.3.9 2.8 2 5.1 2h.4c2.3 0 3.8-1 5.1-2 .9-.6 1.7-1.2 2.6-1.3.5-.1.9-.1 1.4-.1.8 0 1.4.1 1.9.2.4.1.6.1.8.1.5 0 .8-.3.9-.7.1-.3.2-.6.2-.9l.2-.8c1.6-.2 2.8-.6 3.6-.9.7-.3 1.1-.7 1.2-1.1.1-.1.1-.3.1-.4 0-.4-.3-.8-.7-.9-4.9-.8-7.1-5.8-7.2-6.1-.3-.5-.3-.9-.2-1.2.3-.6 1.3-1 2-1.2l.5-.2c.7-.3 1.2-.6 1.5-.9.4-.4.5-.8.5-1 0-.6-.5-1.1-1.2-1.4-.2-.1-.5-.2-.8-.2-.2 0-.5 0-.8.2-.6.3-1.1.4-1.5.4-.2 0-.4-.1-.5-.1v-.8c.2-2.5.4-5.6-.5-7.4-.6-1.3-1.3-2.3-2.2-3.2-.8-.7-1.7-1.3-2.7-1.8-1.7-.7-3.3-.9-4.1-.9"/><path class="st1" d="M21.4 2h-.7c-.8 0-2.4.1-4.2.9-1 .4-1.9 1-2.7 1.8-.9.9-1.7 2-2.2 3.2-.8 1.8-.6 4.9-.5 7.4v.8c-.1.1-.3.1-.6.1-.5 0-1-.1-1.6-.4-.2-.1-.4-.1-.6-.1-.4 0-.8.1-1.1.3-.4.3-.7.6-.8 1 0 .3 0 .8.5 1.3.3.3.8.6 1.4.8l.5.2c.7.2 1.7.5 2 1.2.1.3.1.7-.2 1.2-.1.1-.6 1.5-1.8 2.9-.7.8-1.4 1.5-2.2 2-1 .6-2 1-3.1 1.2-.4.1-.8.5-.7.9 0 .1 0 .3.1.4.2.4.6.8 1.2 1.1.8.4 2 .7 3.6.9.1.1.2.5.2.8s.1.6.2.9c.1.3.3.7 1 .7.2 0 .5-.1.8-.1.5-.1 1.1-.2 1.9-.2.4 0 .9 0 1.4.1.9.1 1.7.7 2.6 1.3 1.3.9 2.8 2 5.1 2h.4c2.3 0 3.8-1 5.1-2 .9-.6 1.7-1.2 2.6-1.3.5-.1.9-.1 1.4-.1.8 0 1.4.1 1.9.2.4.1.6.1.8.1.5 0 .8-.3.9-.7.1-.3.2-.6.2-.9l.2-.8c1.6-.2 2.8-.6 3.6-.9.7-.3 1.1-.7 1.2-1.1.1-.1.1-.3.1-.4 0-.4-.3-.8-.7-.9-4.9-.8-7.1-5.9-7.2-6.1-.3-.5-.3-.9-.2-1.2.3-.6 1.3-1 2-1.2l.5-.2c.7-.3 1.2-.6 1.5-.9.4-.4.5-.8.5-1 0-.6-.5-1.1-1.2-1.4-.2-.1-.5-.1-.8-.1-.2 0-.5 0-.8.1-.6.3-1.1.4-1.5.4-.2 0-.4-.1-.5-.1v-.8c.2-2.5.4-5.6-.5-7.4-.6-1.3-1.3-2.3-2.2-3.2-.8-.7-1.7-1.3-2.7-1.8-1.7-.7-3.3-.9-4.1-.9m0 0h-.7c-.8 0-2.4.1-4.2.9-1 .4-1.9 1-2.7 1.8-.9.9-1.7 2-2.2 3.2-.8 1.8-.6 4.9-.5 7.4v.8c-.1.1-.3.1-.6.1-.5 0-1-.1-1.6-.4-.2-.1-.4-.1-.6-.1-.4 0-.8.1-1.1.3-.4.3-.7.6-.8 1 0 .3 0 .8.5 1.3.3.3.8.6 1.4.8l.5.2c.7.2 1.7.5 2 1.2.1.3.1.7-.2 1.2-.1.1-.6 1.5-1.8 2.9-.7.8-1.4 1.5-2.2 2-1 .6-2 1-3.1 1.2-.4.1-.8.5-.7.9 0 .1 0 .3.1.4.2.4.6.8 1.2 1.1.8.4 2 .7 3.6.9.1.1.2.5.2.8s.1.6.2.9c.1.3.3.7 1 .7.2 0 .5-.1.8-.1.5-.1 1.1-.2 1.9-.2.4 0 .9 0 1.4.1.9.1 1.7.7 2.6 1.3 1.3.9 2.8 2 5.1 2h.4c2.3 0 3.8-1 5.1-2 .9-.6 1.7-1.2 2.6-1.3.5-.1.9-.1 1.4-.1.8 0 1.4.1 1.9.2.4.1.6.1.8.1.5 0 .8-.3.9-.7.1-.3.2-.6.2-.9l.2-.8c1.6-.2 2.8-.6 3.6-.9.7-.3 1.1-.7 1.2-1.1.1-.1.1-.3.1-.4 0-.4-.3-.8-.7-.9-4.9-.8-7.1-5.9-7.2-6.1-.3-.5-.3-.9-.2-1.2.3-.6 1.3-1 2-1.2l.5-.2c.7-.3 1.2-.6 1.5-.9.4-.4.5-.8.5-1 0-.6-.5-1.1-1.2-1.4-.2-.1-.5-.1-.8-.1-.2 0-.5 0-.8.1-.6.3-1.1.4-1.5.4-.2 0-.4-.1-.5-.1v-.8c.2-2.5.4-5.6-.5-7.4-.6-1.3-1.3-2.3-2.2-3.2-.8-.7-1.7-1.3-2.7-1.8-1.7-.7-3.3-.9-4.1-.9"/></svg>