<svg xmlns="http://www.w3.org/2000/svg" viewBox="0 0 42 42"><style>.st0{fill:#dd1282}.st1{fill:#fff}</style><path class="st0" d="M21 4.5c4.7 0 5.2 0 7.1.1 1.7.1 2.6.4 3.2.6.8.3 1.4.7 2 1.3.6.6 1 1.2 1.3 2 .2.6.5 1.5.6 3.2.1 1.8.1 2.4.1 7.1s0 5.2-.1 7.1c-.1 1.7-.4 2.6-.6 3.2-.3.8-.7 1.4-1.3 2s-1.2 1-2 1.3c-.6.2-1.5.5-3.2.6-1.8.1-2.4.1-7.1.1s-5.2 0-7.1-.1c-1.7-.1-2.6-.4-3.2-.6-.8-.3-1.4-.7-2-1.3-.6-.6-1-1.2-1.3-2-.2-.6-.5-1.5-.6-3.2-.1-1.8-.1-2.4-.1-7.1s0-5.2.1-7.1c.1-1.7.4-2.6.6-3.2.3-.8.7-1.4 1.3-2s1.2-1 2-1.3c.6-.2 1.5-.5 3.2-.6 1.9-.1 2.4-.1 7.1-.1m0-3.1c-4.7 0-5.3 0-7.2.1-1.9.1-3.1.4-4.2.8-1.2.5-2.1 1-3.1 2s-1.6 2-2 3.1c-.5 1.1-.8 2.4-.9 4.2s-.1 2.5-.1 7.2 0 5.3.1 7.2c.1 1.9.4 3.1.8 4.2.4 1.2 1 2.1 2 3.1s1.9 1.6 3.1 2c1.1.4 2.4.7 4.2.8 1.9.1 2.5.1 7.2.1s5.3 0 7.2-.1c1.9-.1 3.1-.4 4.2-.8 1.2-.4 2.1-1 3.1-2s1.6-1.9 2-3.1c.4-1.1.7-2.4.8-4.2.1-1.9.1-2.5.1-7.2s0-5.3-.1-7.2c-.1-1.9-.4-3.1-.8-4.2-.5-1.2-1.1-2.1-2-3.1-1-1-1.9-1.6-3.1-2-1.1-.4-2.4-.7-4.2-.8-1.8-.1-2.4-.1-7.1-.1zm0 8.4c-4.9 0-9 4-9 9s4 9 9 9 9-4 9-9-4.1-9-9-9zm0 14.8c-3.2 0-5.8-2.6-5.8-5.8S17.8 13 21 13s5.8 2.6 5.8 5.8-2.6 5.8-5.8 5.8z"/><circle class="st0" cx="30.3" cy="9.5" r="2.1"/><path class="st1" d="M21 81.2c4.7 0 5.2 0 7.1.1 1.7.1 2.6.4 3.2.6.8.3 1.4.7 2 1.3.6.6 1 1.2 1.3 2 .2.6.5 1.5.6 3.2.1 1.8.1 2.4.1 7.1s0 5.2-.1 7.1c-.1 1.7-.4 2.6-.6 3.2-.3.8-.7 1.4-1.3 2-.6.6-1.2 1-2 1.3-.6.2-1.5.5-3.2.6-1.8.1-2.4.1-7.1.1s-5.2 0-7.1-.1c-1.7-.1-2.6-.4-3.2-.6-.8-.3-1.4-.7-2-1.3s-1-1.2-1.3-2c-.2-.6-.5-1.5-.6-3.2-.1-1.8-.1-2.4-.1-7.1s0-5.2.1-7.1c.1-1.7.4-2.6.6-3.2.3-.8.7-1.4 1.3-2 .6-.6 1.2-1 2-1.3.6-.2 1.5-.5 3.2-.6 1.9-.1 2.4-.1 7.1-.1m0-3.1c-4.7 0-5.3 0-7.2.1-1.9.1-3.1.4-4.2.8-1.2.4-2.1 1.1-3.1 2-1 1-1.6 1.9-2 3.1-.4 1.1-.7 2.4-.8 4.2-.1 1.9-.1 2.5-.1 7.2s0 5.3.1 7.2c.1 1.9.4 3.1.8 4.2.4 1.2 1 2.1 2 3.1s1.9 1.6 3.1 2c1.1.4 2.4.7 4.2.8s2.5.1 7.2.1 5.3 0 7.2-.1c1.9-.1 3.1-.4 4.2-.8 1.2-.5 2.1-1 3.1-2s1.6-2 2-3.1c.4-1.1.7-2.4.8-4.2.1-1.9.1-2.5.1-7.2s0-5.3-.1-7.2c-.1-1.9-.4-3.1-.8-4.2-.5-1.2-1.1-2.1-2-3.1-1-1-1.9-1.6-3.1-2-1.1-.4-2.4-.7-4.2-.8-1.9-.1-2.5-.1-7.2-.1zm0 8.5c-4.9 0-9 4-9 9s4 9 9 9 9-4 9-9-4.1-9-9-9zm0 14.8c-3.2 0-5.8-2.6-5.8-5.8 0-3.2 2.6-5.8 5.8-5.8s5.8 2.6 5.8 5.8c0 3.1-2.6 5.8-5.8 5.8z"/><circle class="st1" cx="30.3" cy="86.2" r="2.1"/></svg>