<svg xmlns="http://www.w3.org/2000/svg" viewBox="0 0 329.1 52.5"><style>.st0{fill:#3a261c}.st1{fill:#e1e1dd}</style><path class="st0" d="M23.4 23.6c.8.9 1.4 1.8 1.8 2.9.4 1 .6 2.3.6 3.6 0 3.3-1.2 6-3.7 8.2s-5.5 3.2-9.1 3.2c-1.7 0-3.3-.3-5-.8-1.7-.5-3.1-1.2-4.3-1.9l-1.1 1.9H.4L0 28h2.1c.4 1.6 1 3 1.5 4.3.7 1.3 1.4 2.5 2.4 3.6.9 1 2 1.9 3.2 2.5 1.2.6 2.6.9 4.3.9 1.2 0 2.3-.2 3.2-.5.9-.3 1.6-.8 2.2-1.3.6-.6 1-1.3 1.2-2 .3-.8.4-1.7.4-2.7 0-1.5-.4-2.9-1.3-4.2s-2.1-2.3-3.8-2.9c-1.1-.5-2.4-1-3.9-1.5s-2.8-1.1-3.8-1.6c-2.1-1-3.7-2.2-4.9-3.7-1.2-1.5-1.8-3.5-1.8-6 0-1.4.3-2.8.9-4 .6-1.2 1.4-2.3 2.5-3.3C5.4 4.7 6.6 4 8 3.4s2.8-.8 4.4-.8c1.7 0 3.3.3 4.6.8s2.6 1.1 3.7 1.9l1.1-1.8h2.1l.2 12.4H22c-.4-1.4-.8-2.8-1.3-4.1s-1.1-2.5-1.9-3.5c-.8-1-1.7-1.8-2.8-2.4S13.6 5 12 5c-1.7 0-3.1.5-4.3 1.6S6 8.8 6 10.4c0 1.6.4 3 1.1 4 .8 1.1 1.9 1.9 3.3 2.6 1.3.6 2.5 1.1 3.8 1.6l3.6 1.4c1 .5 2.1 1 3 1.6 1 .6 1.9 1.3 2.6 2zm16.2 17.2H27.1v-1.7l1.2-.1c.4 0 .8-.1 1.1-.2.5-.2.9-.4 1.1-.8.2-.4.4-.9.4-1.5v-16c0-.6-.1-1.1-.4-1.5-.2-.5-.6-.9-1.1-1.2-.3-.2-.8-.4-1.5-.5-.6-.1-1.2-.2-1.7-.3v-1.7l9.2-.6.4.4V36c0 .6.1 1.1.4 1.5.2.4.6.7 1.1.9.4.2.8.3 1.1.4.4.1.8.2 1.2.2v1.8zM36.3 4.2c0 1-.3 1.9-1 2.6-.6.8-1.5 1.2-2.4 1.2-.9 0-1.7-.3-2.3-1.1-.7-.7-1-1.5-1-2.4 0-1 .3-1.8 1-2.5S32 .9 32.9.9c1 0 1.8.3 2.5 1 .6.7.9 1.4.9 2.3zm48.3 36.6H71.9v-1.7l1.2-.1c.4 0 .8-.1 1.1-.2.5-.2.9-.4 1.1-.8.2-.4.4-.9.4-1.5V23c0-1.8-.4-3.2-1.2-4.2s-1.9-1.5-3.1-1.5c-.9 0-1.7.1-2.4.4-.8.3-1.4.6-2.1 1.1-.5.4-.9.8-1.3 1.2s-.6.8-.8 1.1v15c0 .6.1 1.1.3 1.5.2.4.6.7 1.1.9.4.2.8.3 1.1.4.3.1.8.1 1.3.2v1.7H56.1v-1.7l1.2-.1c.4 0 .7-.1 1-.2.5-.2.9-.4 1.1-.8.2-.4.4-.9.4-1.5V23c0-1.8-.4-3.2-1.3-4.2s-1.9-1.5-3.1-1.5c-.9 0-1.7.1-2.4.4-.8.3-1.5.6-2.1 1.1-.5.4-.9.8-1.3 1.3-.3.5-.6.9-.8 1.1v14.9c0 .6.1 1.1.4 1.5.2.4.6.7 1.1.9.4.2.8.3 1.1.4.4.1.8.2 1.3.2v1.7H40.1v-1.7l1.2-.1c.4 0 .8-.1 1.1-.2.5-.2.9-.4 1.1-.8.2-.4.4-.9.4-1.5V20.2c0-.6-.1-1.1-.4-1.5-.3-.5-.6-.8-1.1-1.1-.3-.2-.8-.4-1.2-.5-.5-.1-1-.2-1.5-.2v-1.7l8.7-.6.4.4v3.7h.2c.4-.4 1-1 1.6-1.5.6-.6 1.2-1.1 1.8-1.4.6-.4 1.4-.8 2.3-1.1.9-.3 1.9-.4 3-.4 1.7 0 3.1.4 4.3 1.4 1.2.9 2.1 2 2.6 3.3.6-.6 1.2-1.2 1.7-1.6.5-.5 1.1-1 1.9-1.5.7-.5 1.4-.8 2.4-1.1.9-.3 1.9-.4 3-.4 2.2 0 3.9.7 5.2 2.2s1.9 3.7 1.9 6.6v13.2c0 .6.1 1.1.3 1.5.2.4.6.7 1.1.9.4.2.8.3 1.2.4.4.1.8.1 1.3.2v1.4zm24.1-22.9c1 1.2 1.8 2.7 2.4 4.3.6 1.6.9 3.5.9 5.6 0 2.1-.3 3.9-1 5.6-.7 1.7-1.6 3.1-2.7 4.3-1.2 1.2-2.5 2.1-3.9 2.8s-3 1-4.6 1c-1.6 0-2.8-.2-3.8-.5s-1.8-.8-2.4-1.2h-.2v7.8c0 .6.1 1.2.4 1.6.2.4.6.7 1.1.9.4.2 1 .3 1.8.5s1.4.2 1.9.2v1.7H83.9v-1.7l1.6-.1s1-.1 1.4-.3c.5-.2.9-.5 1.1-.9s.3-1 .3-1.5V20.2c0-.5-.1-1-.4-1.5-.3-.5-.6-.9-1-1.2-.3-.2-.8-.4-1.3-.5-.6-.1-1.1-.2-1.6-.2v-1.7l8.9-.6.4.3v2.9h.2c.9-1 2-1.9 3.4-2.6 1.3-.7 2.7-1.1 4-1.1 1.6 0 3.1.3 4.4 1 1.3.8 2.4 1.7 3.4 2.9zm-4.3 18.7c.7-1.1 1.2-2.3 1.6-3.8.3-1.4.5-3 .5-4.8 0-1.3-.1-2.6-.4-4s-.7-2.5-1.3-3.5c-.6-1-1.4-1.9-2.3-2.5-1-.6-2.1-1-3.5-1-1.3 0-2.4.3-3.3.9-.9.6-1.7 1.2-2.4 2v15.4c.2.5.4 1 .8 1.5s.8 1 1.2 1.3c.5.4 1.1.8 1.8 1.1.6.3 1.4.4 2.3.4 1 0 1.9-.3 2.8-.8.8-.5 1.6-1.3 2.2-2.2zm20.9 4.2h-12.7v-1.7c.4 0 .8-.1 1.3-.1s.8-.1 1.1-.2c.5-.2.9-.4 1.1-.8s.4-.9.4-1.5V6.2c0-.6-.1-1.2-.4-1.8-.3-.5-.6-1-1.1-1.3-.3-.2-.9-.4-1.7-.6-.8-.2-1.5-.3-2-.3V.6L121 0l.4.4v35.7c0 .6.1 1.1.3 1.5.2.4.6.7 1.1.9.4.2.8.3 1.2.4.4.1.8.2 1.3.2v1.7zm-1.4 8.5c0-.9.2-1.6.7-2.2.5-.5 1.1-.8 1.8-.8.6 0 1 .1 1.4.3.4.2.8.5 1.1.8.3.3.5.6.8 1.1s.5.8.7 1.1c.9-.5 1.9-1.7 3.1-3.7 1.2-2 2.1-3.8 2.6-5.3-1.7-4.2-3.2-7.9-4.5-11.2s-2.8-6.7-4.2-10.2c-.3-.8-.9-1.4-1.7-1.9-.8-.5-1.6-.7-2.4-.9v-1.7h11.9v1.8c-.5 0-1.2.1-1.9.3-.7.2-1.1.4-1.1.7 0 .1 0 .3.1.5s.2.5.3.8c.7 1.7 1.7 4.2 3.1 7.5 1.4 3.3 2.4 5.9 3.2 7.9.8-1.9 1.6-3.8 2.5-5.8.9-2 1.8-4.4 2.9-7.1.1-.3.3-.8.5-1.4.2-.6.3-1.1.3-1.5 0-.5-.4-.9-1.2-1.3-.8-.4-1.6-.6-2.3-.7v-1.7h9.6v1.6c-.5.1-1.2.4-2.1.9s-1.5 1.2-1.9 2.2c-2.1 4.9-3.9 9.3-5.6 13.2-1.6 4-2.9 6.9-3.7 8.8-1.1 2.5-2.1 4.4-3 5.8-.9 1.4-1.7 2.5-2.5 3.2-.8.7-1.5 1.2-2.2 1.5-.7.3-1.3.4-2 .4-1.4 0-2.4-.3-3.2-1-.7-.4-1.1-1.2-1.1-2zm68.2-8.5H182c-2.2-3.5-4.2-6.5-6-9.1-1.8-2.5-3.8-5.2-5.9-7.9h-3.8v11.9c0 .6.1 1.2.3 1.6.2.5.6.8 1.2 1.1.3.1.9.2 1.7.3.8.1 1.5.2 2 .2v1.9h-15.8v-1.9c.4 0 1-.1 1.8-.2s1.4-.2 1.7-.3c.5-.2.9-.6 1.1-1s.4-1 .4-1.7v-27c0-.6-.1-1.2-.3-1.6-.2-.5-.6-.8-1.2-1.1-.4-.2-1-.3-1.7-.4-.7-.1-1.3-.2-1.8-.2v-2H173c1.6 0 3.1.2 4.5.5s2.6.9 3.8 1.6c1.1.7 2 1.6 2.6 2.8s1 2.5 1 4.1c0 1.4-.2 2.7-.7 3.8s-1.1 2.1-1.9 2.9c-.8.8-1.7 1.4-2.8 2-1.1.5-2.3 1-3.7 1.4 1.9 2.4 3.4 4.5 4.6 6.2s2.7 3.7 4.5 6.1c.8 1 1.5 1.8 2.1 2.3s1.2.9 1.9 1.2c.5.2 1 .4 1.7.5.7.1 1.3.2 1.7.2l-.2 1.8zm-13.9-27.9c0-2.3-.6-4.1-1.9-5.4-1.3-1.3-3.1-2-5.5-2h-4.5v16h3.4c2.4 0 4.4-.8 6.1-2.3 1.6-1.5 2.4-3.6 2.4-6.3zm35 21.8c-1.1 2.1-2.6 3.7-4.4 5s-3.9 1.8-6.3 1.8c-2.1 0-3.9-.4-5.5-1.1s-2.9-1.7-3.9-3-1.8-2.7-2.3-4.4c-.5-1.7-.8-3.5-.8-5.4 0-1.7.3-3.3.8-5 .5-1.6 1.3-3.1 2.4-4.4 1-1.2 2.2-2.2 3.7-3 1.5-.8 3.1-1.1 5-1.1s3.5.3 4.9.9c1.4.6 2.4 1.4 3.3 2.4.8 1 1.4 2.1 1.8 3.5.4 1.3.6 2.8.6 4.4V27h-17.2c0 1.7.2 3.3.5 4.6.3 1.4.8 2.6 1.5 3.7.7 1 1.6 1.8 2.7 2.4 1.1.6 2.4.9 3.9.9 1.6 0 2.9-.4 4.1-1.1 1.1-.7 2.2-2 3.3-4l1.9 1.2zm-5.8-9.9c0-1-.1-2-.2-3.1-.2-1.1-.4-2.1-.8-2.8-.4-.8-1-1.5-1.7-2s-1.6-.8-2.7-.8c-1.9 0-3.4.8-4.6 2.3-1.2 1.5-1.9 3.7-2 6.4h12zm18.2 16.7c-3.8 0-6.7-1.2-8.8-3.7-2.1-2.5-3.2-5.8-3.2-10 0-1.8.3-3.5.9-5.1s1.4-3 2.5-4.3c1-1.2 2.3-2.2 3.9-3 1.6-.8 3.3-1.1 5.1-1.1 2.6 0 4.6.6 6.2 1.8s2.4 2.9 2.4 5c0 .9-.2 1.7-.6 2.3s-1.1 1-2.1 1-1.8-.3-2.4-.8-.9-1.1-.9-1.8c0-.8.1-1.6.3-2.4s.3-1.4.4-1.8c-.3-.5-.8-.9-1.4-1.1-.6-.2-1.3-.3-2-.3-.8 0-1.6.2-2.4.5-.8.4-1.5 1-2.2 2-.6.9-1.2 2.1-1.6 3.6-.4 1.5-.6 3.3-.6 5.4 0 3.3.7 5.9 2.2 8 1.4 2.1 3.4 3.1 5.7 3.1 1.7 0 3.1-.4 4.3-1.2s2.2-2.1 3.2-3.7l1.7 1.1c-1.2 2.1-2.7 3.7-4.6 4.9-2.1 1-4 1.6-6 1.6zm22.3-.7h-12.6v-1.7l1.2-.1c.4 0 .8-.1 1.1-.2.5-.2.9-.4 1.1-.8.2-.4.4-.9.4-1.5v-16c0-.6-.1-1.1-.4-1.5-.3-.5-.6-.9-1.1-1.2-.3-.2-.8-.4-1.4-.5-.6-.1-1.2-.2-1.7-.3v-1.7l9.2-.6.4.4V36c0 .6.1 1.1.4 1.5.2.4.6.7 1.1.9.4.2.8.3 1.1.4.4.1.8.2 1.2.2v1.8zm-3.3-36.6c0 1-.3 1.9-1 2.6-.6.8-1.4 1.2-2.4 1.2-.9 0-1.7-.3-2.3-1.1-.7-.7-1-1.5-1-2.4 0-1 .3-1.8 1-2.5s1.4-1.1 2.3-1.1c1 0 1.8.3 2.5 1 .6.7.9 1.4.9 2.3zm27.6 13.7c1 1.2 1.8 2.7 2.4 4.3.6 1.6.9 3.5.9 5.6 0 2.1-.3 3.9-1 5.6-.7 1.7-1.6 3.1-2.7 4.3-1.2 1.2-2.5 2.1-3.9 2.8s-3 1-4.6 1c-1.6 0-2.9-.2-3.9-.5s-1.8-.8-2.5-1.2h-.2v7.8c0 .6.1 1.2.4 1.6.2.4.6.7 1.1.9.4.2 1 .3 1.8.5s1.4.2 1.9.2v1.7h-14.5v-1.7l1.6-.1s1-.1 1.4-.3c.5-.2.9-.5 1.1-.9.2-.4.3-1 .3-1.5V20.2c0-.5-.1-1-.4-1.5-.3-.5-.6-.9-1-1.2-.3-.2-.8-.4-1.3-.5-.6-.1-1.1-.2-1.6-.2v-1.7l8.9-.6.4.3v2.9h.2c.9-1 2-1.9 3.4-2.6 1.4-.7 2.7-1.1 4-1.1 1.6 0 3.1.3 4.4 1 1.3.8 2.4 1.7 3.4 2.9zm-4.3 18.7c.7-1.1 1.2-2.3 1.6-3.8.3-1.4.5-3 .5-4.8 0-1.3-.1-2.6-.4-4s-.7-2.5-1.3-3.5c-.6-1-1.4-1.9-2.4-2.5s-2.1-1-3.5-1c-1.3 0-2.4.3-3.3.9-.9.6-1.7 1.2-2.4 2v15.4c.2.5.4 1 .8 1.5s.8 1 1.2 1.3c.5.4 1.1.8 1.8 1.1.6.3 1.4.4 2.3.4 1 0 1.9-.3 2.9-.8.8-.5 1.6-1.3 2.2-2.2zm31.8-1.9c-1.1 2.1-2.5 3.7-4.4 5-1.8 1.2-3.9 1.8-6.3 1.8-2.1 0-3.9-.4-5.5-1.1-1.6-.7-2.9-1.7-3.9-3s-1.8-2.7-2.3-4.4c-.5-1.7-.8-3.5-.8-5.4 0-1.7.3-3.3.8-5s1.3-3.1 2.4-4.4c1-1.2 2.2-2.2 3.7-3 1.5-.8 3.1-1.1 5-1.1s3.5.3 4.9.9c1.4.6 2.5 1.4 3.3 2.4.8 1 1.4 2.1 1.8 3.5.4 1.3.6 2.8.6 4.4V27h-17.2c0 1.7.2 3.3.5 4.6.3 1.4.8 2.6 1.5 3.7.7 1 1.6 1.8 2.7 2.4 1.1.6 2.4.9 4 .9s2.9-.4 4-1.1c1.1-.7 2.2-2 3.3-4l1.9 1.2zm-5.8-9.9c0-1-.1-2-.2-3.1-.2-1.1-.4-2.1-.8-2.8-.4-.8-1-1.5-1.7-2s-1.6-.8-2.7-.8c-1.8 0-3.4.8-4.6 2.3-1.2 1.5-1.9 3.7-2 6.4h12zm23.2 3.3c.7.6 1.3 1.4 1.7 2.2s.6 1.8.6 3c0 2.4-.9 4.4-2.7 5.9-1.8 1.5-4.1 2.3-7 2.3-1.5 0-2.9-.3-4.2-.8-1.3-.5-2.2-1-2.7-1.5l-.5 1.7h-2l-.3-9h1.8c.1.7.4 1.5.9 2.4s1 1.7 1.7 2.5 1.5 1.4 2.5 2c1 .5 2 .8 3.2.8 1.7 0 3-.4 3.9-1.2.9-.8 1.4-1.9 1.4-3.3 0-.7-.1-1.4-.4-1.9s-.7-1-1.3-1.4c-.6-.4-1.3-.8-2.1-1.1-.8-.3-1.8-.6-2.8-1-.8-.2-1.7-.6-2.8-1s-1.9-.9-2.6-1.5c-.8-.6-1.4-1.4-1.9-2.3s-.7-2-.7-3.2c0-2.1.8-3.9 2.4-5.4 1.6-1.5 3.7-2.2 6.4-2.2 1 0 2.1.1 3.1.4s1.9.6 2.6.9l.6-1.4h1.9l.4 8.4h-1.8c-.4-1.9-1.2-3.4-2.4-4.6-1.2-1.2-2.7-1.8-4.5-1.8-1.4 0-2.6.4-3.4 1.1s-1.2 1.6-1.2 2.6c0 .8.1 1.5.4 2 .3.5.7 1 1.2 1.4.5.4 1.2.7 2 1s1.8.7 3 1c1.2.4 2.3.8 3.3 1.3.8.5 1.7 1.1 2.3 1.7z"/><path class="st1" d="M325.7 10.8c0-.2.8-.6.8-1.1 0-.4-.2-.8-.5-1-.3-.2-.8-.3-1.6-.3-.7 0-1.8.1-1.8.1v4.3h1v-2h.6c.6 0 .8.3.9.8.1.5.2 1.2.4 1.2h1.1c-.1 0-.1-.4-.2-1s-.7-.9-.7-1zm-1.4-.4h-.5V9.1c.1 0 .3-.1.6-.1.6 0 1 .3 1 .7 0 .5-.5.7-1.1.7zm.2-4.2c-2.5 0-4.6 2-4.6 4.4 0 2.5 2 4.5 4.6 4.5 2.6 0 4.5-2 4.5-4.5.1-2.5-1.9-4.4-4.5-4.4zm0 8c-2 0-3.5-1.6-3.5-3.5s1.5-3.6 3.4-3.6 3.4 1.6 3.4 3.6c.1 1.9-1.3 3.5-3.3 3.5z"/></svg>